<svg xmlns="http://www.w3.org/2000/svg" width="1093" height="169" fill="none" viewBox="0 0 1093 169"><path fill="#000" d="M528.356 131.024c-23.741 0-40.79-17.686-40.79-42.064 0-24.218 17.049-41.745 40.152-41.745S568.03 64.742 568.03 88.96c0 1.275-.16 3.187-.319 4.78H505.89c1.752 13.065 10.994 22.147 23.103 22.147 8.604 0 16.571-4.62 20.554-11.472l14.34 9.242c-7.17 10.356-21.032 17.367-35.531 17.367m-21.67-50.827h42.224c-2.868-10.675-10.994-17.845-21.192-17.845-10.197 0-18.164 7.17-21.032 17.845m-54.387 50.558v-81.45h18.477v85.817c0 11.255-2.183 19.485-6.719 24.357-5.207 5.879-12.43 8.734-21.668 8.734l-5.04-16.629q8.315 0 11.591-4.535c2.183-3.192 3.359-8.567 3.359-16.294M473.11 18.888c0 6.411-5.197 11.609-11.609 11.609-6.411 0-11.608-5.198-11.608-11.609s5.197-11.609 11.608-11.609 11.609 5.198 11.609 11.609m117.102-.005h18.482v30.403h16.093v15.137h-16.093v64.53h-18.482v-64.53h-13.013V49.286h13.013z"/><path fill="#000" fill-rule="evenodd" d="m196.096 128.953 14.944-30.252h56.808l14.761 30.252h19.276L239.442 1.213 177 128.953zm22.686-46.073 20.66-42.1 20.661 42.1z" clip-rule="evenodd"/><path fill="#000" d="M434.593 76.49c-5.783-7.374-12.766-13.353-25.807-13.353-13.544 0-23.422 10.846-23.422 25.982 0 14.978 9.878 25.972 23.422 25.972 13.041 0 20.024-6.118 25.807-13.476v20.959c-6.947 5.322-15.795 8.45-25.807 8.45-24.06 0-41.427-17.686-41.427-41.905 0-24.377 17.367-41.904 41.427-41.904 9.978 0 18.872 3.034 25.807 8.324zm-103.542 52.463h-18.436V49.325h18.436v7.63c3.552-3.98 6.508-6.306 8.909-7.438 2.842-1.339 5.983-2.202 9.67-2.202s9.914 1.508 15.11 4.692l-8.38 16.76c-3.52-2.514-6.872-3.687-10.224-3.687q-15.084 0-15.085 22.627zM83.264 72.265c12.613 3.223 23.038 5.807 44.736 10.618-21.698 4.812-32.123 7.396-44.736 10.619a11.99 11.99 0 0 0-8.646 8.645C71.395 114.756 68.81 125.186 64 146.883c-4.811-21.697-7.395-32.127-10.618-44.736a11.99 11.99 0 0 0-8.646-8.645C32.123 90.279 21.698 87.695 0 82.883c21.698-4.811 32.123-7.395 44.736-10.618a11.99 11.99 0 0 0 8.646-8.645C56.605 51.01 59.19 40.58 64 18.883c4.811 21.698 7.395 32.127 10.618 44.737a11.99 11.99 0 0 0 8.646 8.645"/><path fill="#D1CBD8" d="m680.4 142.653 44.16-132.96h10.56l-43.84 132.96z"/><path fill="#3D3A45" d="M826.024 128v-7.888q7.344 0 13.736-2.992 6.392-3.127 11.288-8.568 4.896-5.576 7.616-12.784t2.72-15.368-2.72-15.368-7.616-12.648q-4.896-5.576-11.288-8.568-6.392-3.128-13.736-3.128V32.8q12.92 0 22.848 6.12 9.929 5.984 15.504 16.728 5.712 10.744 5.712 24.752 0 13.872-5.712 24.616-5.575 10.744-15.504 16.864T826.024 128m-19.72 0v-7.888h19.72V128zm-8.704 0V32.8h8.704V128zm8.704-87.312V32.8h19.72v7.888zm110.108 88.944q-9.792 0-17.408-4.488-7.48-4.625-11.832-12.648-4.216-8.024-4.216-18.496t4.216-18.496 11.696-12.512q7.616-4.624 17.272-4.624 9.792 0 17.272 4.624 7.615 4.488 11.832 12.512Q949.46 83.529 949.46 94q0 10.472-4.216 18.496t-11.696 12.648q-7.48 4.488-17.136 4.488m0-7.48q7.344 0 12.92-3.536 5.576-3.672 8.704-9.928Q941.3 102.297 941.3 94q0-8.295-3.264-14.552-3.128-6.391-8.84-9.928-5.712-3.672-13.056-3.672t-13.056 3.672q-5.576 3.536-8.84 9.928-3.128 6.255-3.128 14.552 0 8.296 3.264 14.688 3.264 6.256 8.976 9.928 5.712 3.536 13.056 3.536m78.758 7.48q-9.792 0-17.408-4.488-7.48-4.625-11.832-12.648-4.216-8.024-4.216-18.496t4.216-18.496 11.696-12.512q7.615-4.624 17.272-4.624 9.663 0 17.132 4.352c4.99 2.81 8.84 6.755 11.56 11.832l-7.07 3.808c-2.08-3.899-5.03-6.936-8.84-9.112-3.72-2.267-7.977-3.4-12.782-3.4q-7.344 0-13.056 3.672-5.576 3.536-8.84 9.928-3.129 6.255-3.128 14.552 0 8.296 3.264 14.688 3.264 6.256 8.976 9.928 5.712 3.536 13.056 3.536c4.9 0 9.25-1.224 13.06-3.672 3.8-2.539 6.71-6.029 8.7-10.472l7.21 3.808q-4.08 8.297-11.7 13.056c-4.98 3.173-10.74 4.76-17.27 4.76m67.06 0c-5.17 0-9.61-.771-13.33-2.312s-6.76-3.536-9.11-5.984c-2.27-2.448-3.86-4.987-4.76-7.616l7.34-2.72c1.54 3.355 3.99 6.075 7.34 8.16 3.45 1.995 7.12 2.992 11.02 2.992q7.215 0 12.24-2.992c3.35-1.995 5.03-4.805 5.03-8.432 0-3.264-1.22-5.939-3.67-8.024s-6.07-3.763-10.88-5.032l-6.66-1.768c-6.08-1.632-10.79-3.99-14.15-7.072q-4.89-4.76-4.89-10.608 0-9.384 6.12-14.552c4.17-3.536 10.42-5.304 18.76-5.304 3.9 0 7.39.59 10.48 1.768 3.17 1.088 5.84 2.675 8.02 4.76 2.27 2.085 3.94 4.579 5.03 7.48l-7.34 3.128q-2.175-5.305-6.39-7.48c-2.81-1.45-6.49-2.176-11.02-2.176-4.81 0-8.61 1.043-11.42 3.128q-4.08 2.992-4.08 8.568c0 1.995 1.08 3.99 3.26 5.984 2.27 1.904 5.62 3.445 10.06 4.624l5.85 1.496c4.44 1.088 8.21 2.675 11.29 4.76 3.17 1.995 5.58 4.307 7.21 6.936q2.58 3.944 2.58 8.704c0 4.08-1.04 7.616-3.13 10.608-2.08 2.901-4.94 5.123-8.56 6.664q-5.31 2.312-12.24 2.312"/></svg>